<?xml version="1.0" encoding="UTF-8"?>
<!DOCTYPE svg PUBLIC "-//W3C//DTD SVG 1.1//EN" "http://www.w3.org/Graphics/SVG/1.1/DTD/svg11.dtd">
<!-- Creator: CorelDRAW -->
<svg xmlns="http://www.w3.org/2000/svg" xml:space="preserve" width="2151px" height="2151px" shape-rendering="geometricPrecision" text-rendering="geometricPrecision" image-rendering="optimizeQuality" fill-rule="evenodd" clip-rule="evenodd"
viewBox="0 0 2261.35 2261.74"
 xmlns:xlink="http://www.w3.org/1999/xlink">
 <g id="Ebene_x0020_1">
  <metadata id="CorelCorpID_0Corel-Layer"/>
  <path fill="#FFF500" fill-rule="nonzero" d="M2261.35 1130.98c0,-624.202 -506.782,-1130.98 -1130.68,-1130.98 -624.201,0 -1130.68,506.781 -1130.68,1130.98 0,623.895 506.476,1130.75 1130.68,1130.75 623.895,0 1130.68,-506.858 1130.68,-1130.75z"/>
  <path fill="#1F1A17" d="M763.959 1443.47c0,-42.0723 37.4833,-76.0372 83.6094,-76.0372 46.2031,0 83.6864,33.9649 83.6864,76.0372 0,42.1481 -37.4833,76.113 -83.6864,76.113 -46.1261,0 -83.6094,-33.9649 -83.6094,-76.113zm565.912 0c0,-42.0723 37.4821,-76.0372 83.9149,-76.0372 46.1273,0 83.6094,33.9649 83.6094,76.0372 0,42.1481 -37.4821,76.113 -83.6094,76.113 -46.4328,0 -83.9149,-33.9649 -83.9149,-76.113zm-631.469 -196.134c0,0 288.693,-18.13 432.045,-17.5947 149.166,0.306762 432.046,16.5229 432.046,16.5229 18.818,-163.317 -8.1087,-273.393 -68.8463,-429.903 0,0 -220.994,-29.9869 -362.663,-30.2167 -141.669,-0.30552 -362.742,29.1449 -362.742,29.1449 -60.6606,157.581 -87.9687,268.193 -69.8399,432.046zm981.435 820.87l-28.8381 -93.3239 -178.388 0 0 -93.7065 -96.0774 0 0 93.7065 -492.247 0 0 -93.7065 -96.0786 0 0 93.7065 -175.633 0 -31.2872 93.3239 1098.55 0zm-633.075 -1437.5c0,-41.8438 37.4821,-76.113 83.9149,-76.113 46.1273,0 83.6864,34.2692 83.6864,76.113 0,42.0723 -37.5591,76.3415 -83.6864,76.3415 -46.4328,0 -83.9149,-34.2692 -83.9149,-76.3415zm-258.554 1156.84l-117.343 -143.275c-115.509,-152.456 -110.154,-310.571 -110.919,-431.204 -1.37732,-141.134 13.7695,-286.092 63.414,-436.406 36.183,-96.6139 133.332,-260.925 213.729,-291.677 84.9867,-19.7358 189.403,-22.4123 293.589,-22.4123 104.187,0 208.373,2.67641 293.59,22.4123 80.1667,30.752 177.621,195.063 213.727,291.677 49.6458,150.313 64.4858,295.271 63.414,436.406 -1.07056,120.633 4.59025,278.749 -110.917,431.204l-117.88 143.275 -684.403 0z"/>
  <polygon fill="#1F1A17" fill-rule="nonzero" points="1184.38,286.092 1211.38,380.793 1092.66,380.793 1065.35,286.092 846.803,286.092 877.861,192.691 1385.71,192.691 1414.55,286.092 "/>
 </g>
</svg>
