<?xml version="1.0" encoding="UTF-8"?>
<!DOCTYPE svg PUBLIC "-//W3C//DTD SVG 1.1//EN" "http://www.w3.org/Graphics/SVG/1.1/DTD/svg11.dtd">
<!-- Creator: CorelDRAW -->
<svg xmlns="http://www.w3.org/2000/svg" xml:space="preserve" width="1931px" height="1931px" shape-rendering="geometricPrecision" text-rendering="geometricPrecision" image-rendering="optimizeQuality" fill-rule="evenodd" clip-rule="evenodd"
viewBox="0 0 2044.98 2044.98"
 xmlns:xlink="http://www.w3.org/1999/xlink">
 <g id="Ebene_x0020_1">
  <metadata id="CorelCorpID_0Corel-Layer"/>
  <path fill="white" fill-rule="nonzero" d="M2032.27 1022.49c0,-558.393 -451.147,-1009.56 -1009.54,-1009.56 -558.398,0 -1009.56,451.166 -1009.56,1009.56 0,558.395 451.157,1009.55 1009.56,1009.55 558.395,0 1009.54,-451.152 1009.54,-1009.55z"/>
  <path fill="#0089C8" d="M2044.98 1022.49c0,-563.949 -458.556,-1022.49 -1022.49,-1022.49 -563.935,0 -1022.49,458.542 -1022.49,1022.49 0,229.262 77.6589,443.757 207.087,615.709 25.8946,-22.194 116.49,-61.0165 164.561,-66.5719l290.291 -1272.09 859.783 0 -59.1806 273.64 -484.433 0 -72.1085 312.485 456.702 0 -61.0165 268.102 -462.239 0 -94.3025 423.416c199.697,36.9741 371.643,208.94 734.048,208.94 123.881,0 225.574,-24.0424 262.548,-36.9879 186.75,-184.898 303.242,-441.908 303.242,-726.645zm-453 848.691c-36.9916,9.24352 -79.5036,14.7851 -125.735,14.7851 -458.541,0 -575.032,-231.133 -918.945,-231.133 -122.033,0 -212.629,27.7443 -271.81,64.7184 181.21,195.999 451.166,325.426 746.998,325.426 210.789,0 406.783,-64.7134 569.492,-173.796z"/>
 </g>
</svg>
